<svg xmlns="http://www.w3.org/2000/svg" viewBox="0 0 200 200" width="200" height="200">
  <circle cx="100" cy="100" r="100" fill="#f2c9a0"/>
  <path d="M100 30c-30 0-46 22-46 52 0 8 2 15 4 21-6 4-10 12-10 20 0 14 10 24 24 24h56c14 0 24-10 24-24 0-8-4-16-10-20 2-6 4-13 4-21 0-30-16-52-46-52z" fill="#5a3a2a"/>
  <circle cx="100" cy="108" r="42" fill="#f2c9a0"/>
  <circle cx="84" cy="104" r="4" fill="#3a2418"/>
  <circle cx="116" cy="104" r="4" fill="#3a2418"/>
  <path d="M86 128q14 10 28 0" stroke="#3a2418" stroke-width="3" fill="none" stroke-linecap="round"/>
  <path d="M40 200c4-34 28-56 60-56s56 22 60 56z" fill="#ffc326"/>
</svg>
