<svg xmlns="http://www.w3.org/2000/svg" viewBox="0 0 200 200" width="200" height="200">
  <circle cx="100" cy="100" r="100" fill="#dba97a"/>
  <circle cx="100" cy="104" r="42" fill="#dba97a"/>
  <path d="M58 92c0-26 18-44 42-44s42 18 42 44c0 4 0 8-2 12-6-10-16-16-24-16-8 6-18 10-28 10-8 0-14-2-18-6-6 4-12 12-12 22 0-8 0-16 0-22z" fill="#1c1c1c"/>
  <circle cx="84" cy="106" r="4" fill="#2a1a10"/>
  <circle cx="116" cy="106" r="4" fill="#2a1a10"/>
  <path d="M88 130q12 8 24 0" stroke="#2a1a10" stroke-width="3" fill="none" stroke-linecap="round"/>
  <path d="M38 200c4-36 30-58 62-58s58 22 62 58z" fill="#232323"/>
</svg>
