<svg xmlns="http://www.w3.org/2000/svg" viewBox="0 0 200 200" width="200" height="200">
  <circle cx="100" cy="100" r="100" fill="#f6d7b8"/>
  <path d="M100 34c-32 0-50 24-50 54 0 10 2 18 5 24-3 10-3 20 2 24 2-10 6-16 10-20 8 8 20 12 33 12s25-4 33-12c4 4 8 10 10 20 5-4 5-14 2-24 3-6 5-14 5-24 0-30-18-54-50-54z" fill="#3a2a1a"/>
  <circle cx="100" cy="112" r="40" fill="#f6d7b8"/>
  <circle cx="85" cy="110" r="4" fill="#3a2418"/>
  <circle cx="115" cy="110" r="4" fill="#3a2418"/>
  <path d="M87 132q13 9 26 0" stroke="#3a2418" stroke-width="3" fill="none" stroke-linecap="round"/>
  <path d="M40 200c4-34 28-56 60-56s56 22 60 56z" fill="#ff3c00"/>
</svg>
