<svg xmlns="http://www.w3.org/2000/svg" viewBox="0 0 1920 1080" width="1920" height="1080" preserveAspectRatio="xMidYMid slice">
  <defs>
    <linearGradient id="sky1" x1="0" y1="0" x2="0" y2="1">
      <stop offset="0%" stop-color="#1a1a1a"/>
      <stop offset="55%" stop-color="#2b2b2b"/>
      <stop offset="100%" stop-color="#111"/>
    </linearGradient>
    <linearGradient id="glow1" x1="0" y1="0" x2="1" y2="0">
      <stop offset="0%" stop-color="#ff3c00" stop-opacity="0.55"/>
      <stop offset="100%" stop-color="#ff3c00" stop-opacity="0"/>
    </linearGradient>
  </defs>
  <rect width="1920" height="1080" fill="url(#sky1)"/>
  <ellipse cx="1500" cy="260" rx="700" ry="420" fill="url(#glow1)"/>
  <g opacity="0.5">
    <rect x="0" y="760" width="1920" height="320" fill="#0d0d0d"/>
    <g stroke="#ffc326" stroke-width="10" stroke-dasharray="70 60" opacity="0.35">
      <line x1="-100" y1="900" x2="2000" y2="900"/>
      <line x1="-100" y1="960" x2="2000" y2="960"/>
    </g>
  </g>
  <g transform="translate(1180,640)" opacity="0.9">
    <rect x="0" y="60" width="360" height="90" rx="10" fill="#333"/>
    <rect x="40" y="-40" width="150" height="110" rx="10" fill="#3d3d3d"/>
    <rect x="60" y="-20" width="60" height="55" rx="6" fill="#ffc326" opacity="0.6"/>
    <rect x="200" y="30" width="140" height="14" rx="4" fill="#555"/>
    <circle cx="90" cy="160" r="42" fill="#161616" stroke="#555" stroke-width="8"/>
    <circle cx="300" cy="160" r="42" fill="#161616" stroke="#555" stroke-width="8"/>
    <path d="M190 40 Q260 40 260 -20" stroke="#ff3c00" stroke-width="10" fill="none" stroke-linecap="round"/>
    <circle cx="260" cy="-28" r="12" fill="#ff3c00"/>
  </g>
</svg>
