<svg xmlns="http://www.w3.org/2000/svg" viewBox="0 0 480 320" width="480" height="320">
  <ellipse cx="240" cy="290" rx="210" ry="18" fill="#000" opacity="0.12"/>
  <rect x="30" y="150" width="300" height="40" rx="4" fill="#e0e0e0"/>
  <rect x="30" y="120" width="150" height="70" rx="6" fill="#ff3c00"/>
  <rect x="60" y="132" width="90" height="46" rx="4" fill="#232323" opacity="0.85"/>
  <rect x="185" y="70" width="145" height="120" rx="6" fill="#ffc326"/>
  <rect x="200" y="150" width="120" height="30" rx="3" fill="#232323" opacity="0.15"/>
  <path d="M330 150 L330 100 Q330 90 340 90 L400 90 Q412 90 418 100 L440 150 Z" fill="#ff3c00"/>
  <rect x="336" y="105" width="55" height="35" rx="3" fill="#cfeaf5" opacity="0.85"/>
  <path d="M170 100 Q230 100 230 70" stroke="#232323" stroke-width="10" fill="none" stroke-linecap="round"/>
  <circle cx="230" cy="65" r="14" fill="#232323"/>
  <circle cx="120" cy="230" r="42" fill="#1a1a1a"/>
  <circle cx="120" cy="230" r="18" fill="#8a8a8a"/>
  <circle cx="300" cy="230" r="42" fill="#1a1a1a"/>
  <circle cx="300" cy="230" r="18" fill="#8a8a8a"/>
  <circle cx="410" cy="230" r="34" fill="#1a1a1a"/>
  <circle cx="410" cy="230" r="14" fill="#8a8a8a"/>
</svg>
